<svg xmlns="http://www.w3.org/2000/svg" viewBox="0 0 512 512">
  <defs>
    <linearGradient id="bg" x1="0%" y1="0%" x2="100%" y2="100%">
      <stop offset="0%" stop-color="#6366f1"/>
      <stop offset="100%" stop-color="#3730a3"/>
    </linearGradient>
    <linearGradient id="shine" x1="0%" y1="0%" x2="0%" y2="100%">
      <stop offset="0%" stop-color="rgba(255,255,255,0.15)"/>
      <stop offset="100%" stop-color="rgba(255,255,255,0)"/>
    </linearGradient>
  </defs>

  <!-- Background rounded square -->
  <rect width="512" height="512" rx="112" fill="url(#bg)"/>
  <rect width="512" height="512" rx="112" fill="url(#shine)"/>

  <!-- Mortarboard flat top (diamond) -->
  <polygon points="256,128 404,208 256,288 108,208" fill="white"/>

  <!-- Hat body -->
  <path d="M 162 224 L 162 308 Q 162 362 256 372 Q 350 362 350 308 L 350 224 Q 303 252 256 252 Q 209 252 162 224 Z" fill="white" opacity="0.92"/>

  <!-- Tassel string -->
  <rect x="396" y="208" width="10" height="96" rx="5" fill="white" opacity="0.85"/>

  <!-- Tassel ball -->
  <circle cx="401" cy="318" r="20" fill="white"/>

  <!-- Tassel fringe -->
  <line x1="401" y1="322" x2="388" y2="352" stroke="rgba(99,102,241,0.5)" stroke-width="4" stroke-linecap="round"/>
  <line x1="401" y1="322" x2="401" y2="356" stroke="rgba(99,102,241,0.5)" stroke-width="4" stroke-linecap="round"/>
  <line x1="401" y1="322" x2="414" y2="352" stroke="rgba(99,102,241,0.5)" stroke-width="4" stroke-linecap="round"/>
</svg>
